<?xml version="1.0" encoding="UTF-8" standalone="no"?>
<svg
   height="800px"
   width="800px"
   version="1.1"
   viewBox="0 0 495 495"
   xml:space="preserve"
   id="svg1"
   sodipodi:docname="linux-symbolic.svg"
   inkscape:version="1.4.3 (0d15f75042, 2025-12-25)"
   xmlns:inkscape="http://www.inkscape.org/namespaces/inkscape"
   xmlns:sodipodi="http://sodipodi.sourceforge.net/DTD/sodipodi-0.dtd"
   xmlns="http://www.w3.org/2000/svg"
   xmlns:svg="http://www.w3.org/2000/svg"><defs
   id="defs1" /><sodipodi:namedview
   id="namedview1"
   pagecolor="#505050"
   bordercolor="#ffffff"
   borderopacity="1"
   inkscape:showpageshadow="0"
   inkscape:pageopacity="0"
   inkscape:pagecheckerboard="1"
   inkscape:deskcolor="#505050"
   inkscape:zoom="0.76279144"
   inkscape:cx="441.79835"
   inkscape:cy="390.01486"
   inkscape:window-width="1691"
   inkscape:window-height="1277"
   inkscape:window-x="0"
   inkscape:window-y="0"
   inkscape:window-maximized="1"
   inkscape:current-layer="svg1" />
<path
   style="fill:currentColor;stroke-width:1.5663"
   d="m 85.633946,466.86469 c 26.020894,3.10753 55.257384,19.96403 79.724504,22.93999 24.59869,3.10597 32.2109,-16.75154 32.2109,-16.75154 0,0 27.68116,-6.18845 56.78295,-6.9011 29.12999,-0.81605 56.70463,6.05842 56.70463,6.05842 0,0 5.34734,12.24688 15.32936,17.59422 9.982,5.45071 31.47315,6.18843 45.24716,-8.3233 13.80065,-14.61669 50.62115,-33.0285 71.29627,-44.53765 20.80668,-11.53578 16.98805,-29.12841 3.92514,-34.47576 -13.06291,-5.34576 -23.75602,-13.77401 -22.93999,-29.94602 0.71111,-16.03888 -11.53577,-26.73199 -11.53577,-26.73199 0,0 10.71974,-35.29179 0.73772,-64.52672 -9.98201,-29.10179 -42.904,-75.9043 -68.21378,-111.09115 C 319.59325,134.88028 341.08284,94.136214 318.03949,42.066243 294.99299,-10.082039 235.23408,-6.9995669 203.02319,15.227745 170.8123,37.456627 180.6878,92.580872 182.24157,118.73489 c 1.55377,26.02089 0.71109,44.64104 -2.26487,51.33225 -2.97596,6.79459 -23.75602,31.47316 -37.55666,52.14828 -13.77401,20.78005 -23.7576,63.68405 -33.84454,81.38321 -9.877068,17.59421 -2.97597,33.63309 -2.97597,33.63309 0,0 -6.899535,2.3698 -12.351814,13.90715 -5.347336,11.4042 -16.040446,16.85492 -35.293359,20.57017 -19.12135,3.92357 -19.12135,16.25033 -14.511739,30.05096 4.634672,13.77402 0,21.49117 -5.347337,39.08538 -5.34577,17.59107 21.412842,22.93684 47.538665,26.01931 z M 356.12086,386.61235 c 13.66907,5.97855 33.31669,-2.34474 39.29524,-8.3233 5.9535,-5.95193 10.16684,-14.8015 10.16684,-14.8015 0,0 5.97855,2.97596 5.3724,12.43013 -0.63279,9.5873 4.1084,23.25637 13.06291,27.99755 8.95451,4.71456 22.62358,11.29769 15.53923,17.88241 -7.2175,6.58471 -47.14397,22.65021 -59.07444,35.18686 -11.82555,12.45676 -27.36477,22.65021 -36.82051,19.64762 -9.55911,-2.97596 -17.90904,-16.03888 -13.79908,-35.16023 4.23997,-19.04146 7.82209,-39.92804 7.21593,-51.85851 -0.63121,-11.93049 -2.97596,-27.99599 0,-30.36736 2.97598,-2.34475 7.71715,-1.21231 7.71715,-1.21231 0,0 -2.37294,22.62828 11.32433,28.57864 z M 267.41678,64.295125 c 13.16786,0 23.78264,13.062909 23.78264,29.128422 0,11.404203 -5.34733,21.281263 -13.16941,26.022453 -1.97511,-0.81605 -4.03009,-1.7386 -6.29495,-2.68777 4.74118,-2.34318 8.03197,-8.32173 8.03197,-15.22283 0,-9.032841 -5.55566,-16.460217 -12.53664,-16.460217 -6.79459,0 -12.45832,7.425813 -12.45832,16.460217 0,3.29391 0.8176,6.58471 2.15992,9.16596 -4.1084,-1.66028 -7.82208,-3.08091 -10.79806,-4.21334 -1.55376,-3.92513 -2.4763,-8.349928 -2.4763,-13.06291 10e-4,-16.0655 10.58815,-29.129985 23.75915,-29.129985 z m -32.60717,50.199805 c 6.47977,1.13243 24.2823,8.84958 30.86858,11.21938 6.58471,2.26487 13.87896,6.47821 13.16785,10.69311 -0.81603,4.34491 -4.21334,4.34491 -13.16785,9.79719 -8.84958,5.34733 -28.18082,17.27782 -34.37082,18.09385 -6.16338,0.81605 -9.66561,-2.66113 -16.25189,-6.9011 -6.58471,-4.31984 -18.93496,-14.40679 -15.829,-19.75256 0,0 9.66562,-7.40075 13.88053,-11.19276 4.2149,-3.92514 15.1179,-13.16942 21.7026,-11.95711 z M 206.41736,68.931358 c 10.3767,0 18.83157,12.351818 18.83157,27.574655 0,2.766074 -0.31639,5.345777 -0.81603,7.927027 -2.58126,0.81604 -5.16095,2.15992 -7.63884,4.31985 -1.21074,1.02749 -2.34474,1.94847 -3.37066,2.97596 1.63208,-3.0809 2.26486,-7.50569 1.52714,-12.141933 -1.4222,-8.216793 -6.97942,-14.300287 -12.4317,-13.484241 -5.4789,0.922551 -8.74464,8.454869 -7.42738,16.778164 1.44882,8.42824 6.89954,14.51017 12.45676,13.5892 0.31639,-0.10493 0.60616,-0.20989 0.92255,-0.3164 -2.65957,2.58125 -5.13589,4.84612 -7.71715,6.68965 -7.50569,-3.5038 -13.06291,-13.98546 -13.06291,-26.337277 0.001,-15.327779 8.3233,-27.574655 18.72665,-27.574655 z M 148.60691,268.20033 c 10.69311,-16.85493 17.59264,-53.70205 28.28575,-65.94893 10.79961,-12.22024 19.12135,-38.26776 15.32934,-49.7769 0,0 23.04493,27.57465 39.08537,23.04492 16.0655,-4.63624 52.17492,-31.47316 57.52068,-26.86356 5.34733,4.63468 51.33225,105.77046 55.96692,137.98134 4.63623,32.18426 -3.08091,56.78452 -3.08091,56.78452 0,0 -17.59264,-4.63623 -19.85908,6.05687 -2.26486,10.79805 -2.26486,49.91005 -2.26486,49.91005 0,0 -23.78264,32.92198 -60.60315,38.3727 -36.8205,5.34733 -55.25738,1.44882 -55.25738,1.44882 l -20.67511,-23.67771 c 0,0 16.06706,-2.3698 13.80063,-18.51518 -2.26486,-16.03889 -49.094,-38.26933 -57.52224,-58.23336 -8.42511,-19.96401 -1.55064,-53.70204 9.27404,-70.58358 z m -91.048826,120.7834 c 1.843531,-7.90041 25.704499,-7.90041 34.87046,-13.45763 9.165976,-5.55722 11.007936,-21.51777 18.410256,-25.73111 7.29424,-4.31986 20.78006,11.0095 26.33728,19.64606 5.45228,8.42824 26.33884,45.27537 34.87202,54.43977 8.63813,9.24428 16.56672,21.49116 14.09041,32.50066 -2.34317,11.00792 -15.32778,19.04146 -15.32778,19.04146 -11.61409,3.58212 -44.00981,-10.40334 -58.73142,-16.56672 -14.721634,-6.18844 -52.174914,-8.03354 -56.994409,-13.48424 -4.951064,-5.55722 2.369807,-17.8041 4.31828,-29.41976 1.737023,-11.74566 -3.713689,-19.04147 -1.845097,-26.96849 z"
   id="path1" />
</svg>
