<svg xmlns="http://www.w3.org/2000/svg" xml:space="preserve" viewBox="0 0 495 495"><path d="M85.6 466.9c26 3 55.3 20 79.8 23 24.6 3 32.2-16.8 32.2-16.8s27.7-6.2 56.8-7 56.7 6.1 56.7 6.1 5.3 12.3 15.3 17.6c10 5.5 31.5 6.2 45.2-8.3s50.7-33 71.3-44.6c20.8-11.5 17-29 4-34.4s-23.8-13.8-23-30c.7-16-11.5-26.7-11.5-26.7s10.7-35.3.7-64.5c-10-29.1-42.9-76-68.2-111.1-25.3-35.3-3.8-76-26.9-128.1C295-10.1 235.2-7 203 15.2s-22.3 77.4-20.8 103.5c1.6 26 .8 44.7-2.2 51.4-3 6.8-23.8 31.4-37.6 52.1s-23.7 63.7-33.8 81.4c-9.9 17.6-3 33.6-3 33.6s-6.9 2.4-12.4 14C88 362.4 77.2 368 58 371.6c-19.2 4-19.2 16.3-14.6 30 4.7 13.8 0 21.6-5.3 39.1-5.3 17.6 21.4 23 47.5 26m270.5-80.2c13.7 6 33.3-2.3 39.3-8.3s10.2-14.8 10.2-14.8 6 3 5.4 12.4c-.7 9.6 4 23.3 13 28s22.6 11.3 15.6 17.9c-7.3 6.6-47.2 22.6-59.1 35.2-11.8 12.4-27.4 22.6-36.8 19.6-9.6-3-18-16-13.8-35.1 4.2-19 7.8-40 7.2-51.9-.7-12-3-28 0-30.4s7.7-1.2 7.7-1.2-2.4 22.7 11.3 28.6M267.4 64.3c13.2 0 23.8 13 23.8 29.1 0 11.4-5.3 21.3-13.2 26l-6.3-2.6c4.8-2.4 8-8.4 8-15.3 0-9-5.5-16.4-12.5-16.4-6.8 0-12.4 7.4-12.4 16.4q0 5.1 2.1 9.2l-10.8-4.2a36 36 0 0 1-2.4-13c0-16.1 10.5-29.2 23.7-29.2m-32.6 50.2c6.5 1.1 24.3 8.8 30.9 11.2s13.9 6.5 13.1 10.7c-.8 4.4-4.2 4.4-13.1 9.8s-28.2 17.3-34.4 18.1-9.7-2.7-16.2-6.9-19-14.4-15.9-19.8c0 0 9.7-7.4 14-11.1 4.1-4 15-13.2 21.6-12m-28.4-45.6c10.4 0 18.8 12.4 18.8 27.6a41 41 0 0 1-.8 8q-3.8 1-7.6 4.3-1.9 1.4-3.4 3a20 20 0 0 0 1.6-12.2c-1.5-8.2-7-14.3-12.5-13.5-5.5 1-8.7 8.5-7.4 16.8 1.4 8.4 6.9 14.5 12.4 13.6l1-.3a69 69 0 0 1-7.7 6.6c-7.6-3.5-13.1-14-13.1-26.3 0-15.3 8.3-27.6 18.7-27.6m-57.8 199.3c10.7-16.9 17.6-53.7 28.3-66 10.8-12.2 19.1-38.2 15.3-49.7 0 0 23 27.5 39.1 23 16-4.6 52.2-31.5 57.5-26.8 5.4 4.6 51.4 105.7 56 138 4.6 32.1-3 56.7-3 56.7s-17.7-4.6-20 6c-2.2 10.9-2.2 50-2.2 50s-23.8 33-60.6 38.4-55.3 1.4-55.3 1.4l-20.6-23.7s16-2.3 13.8-18.5c-2.3-16-49.1-38.3-57.6-58.2s-1.5-53.7 9.3-70.6M57.6 389c1.8-8 25.7-8 34.8-13.5 9.2-5.5 11-21.5 18.4-25.7 7.3-4.3 20.8 11 26.4 19.6 5.4 8.5 26.3 45.3 34.8 54.5 8.7 9.2 16.6 21.5 14.1 32.5-2.3 11-15.3 19-15.3 19-11.6 3.6-44-10.4-58.7-16.5-14.7-6.2-52.2-8-57-13.5-5-5.6 2.4-17.8 4.3-29.4 1.7-11.8-3.7-19-1.8-27"/></svg>